<?xml version="1.0" encoding="UTF-8" standalone="no"?>
<svg
   xmlns:svg="http://www.w3.org/2000/svg"
   xmlns="http://www.w3.org/2000/svg"
   version="1.0"
   width="104mm"
   height="104mm"
   id="KTH Logotype">
  <path
     d="M 115.39097,191.406 C 115.61697,199.156 115.69097,201.414 125.39797,202.617 L 125.39797,203.746 L 99.441168,203.746 L 99.441168,202.617 C 108.46897,201.414 108.54497,199.156 108.76997,191.406 L 108.76997,164.922 C 108.54497,157.172 108.46897,154.916 99.441168,153.711 L 99.441168,152.584 L 123.36697,152.584 L 123.36697,153.711 C 115.69097,154.916 115.61697,157.172 115.39097,164.922 L 115.39097,191.406 M 149.38097,152.535 L 149.38097,153.662 C 140.80097,154.566 134.68597,161.67 129.11897,167.461 L 122.70497,174.021 L 138.14497,191.207 C 145.42197,198.645 148.47297,202.658 154.59797,202.926 L 154.57797,204.076 C 141.96697,205.615 138.85897,202.295 131.78697,194.545 L 116.43797,177.844 L 128.14097,165.355 C 136.04097,156.477 134.93397,154.189 129.89297,153.662 L 129.89297,152.535 L 149.38097,152.535"
     style="fill:#000000;fill-opacity:1;fill-rule:nonzero;stroke-width:0;stroke-linecap:butt;stroke-linejoin:miter;stroke-miterlimit:10"
     id="path17" />
  <path
     d="M 202.97897,152.504 L 203.87697,166.32 L 202.82297,166.547 C 200.19197,157.217 196.05297,154.84 187.40197,154.84 L 182.88697,154.84 L 182.88697,189.602 C 182.88697,198.93 183.33797,201.414 193.41797,202.617 L 193.41797,203.746 L 165.73397,203.746 L 165.73397,202.617 C 175.81397,201.414 176.26597,198.93 176.26597,189.602 L 176.26597,154.84 L 171.75197,154.84 C 163.09997,154.84 158.96097,157.217 156.32797,166.547 L 155.27497,166.32 L 156.14897,152.504 L 202.97897,152.504"
     style="fill:#000000;fill-opacity:1;fill-rule:nonzero;stroke-width:0;stroke-linecap:butt;stroke-linejoin:miter;stroke-miterlimit:10"
     id="path21" />
  <path
     d="M 226.38297,191.406 C 226.38297,199.684 226.53397,201.188 236.39097,202.617 L 236.39097,203.746 L 210.43397,203.746 L 210.43397,202.617 C 219.46097,201.414 219.53797,199.156 219.76197,191.406 L 219.76197,164.922 C 219.53797,157.172 219.46097,154.916 210.43397,153.711 L 210.43397,152.584 L 236.39097,152.584 L 236.39097,153.711 C 226.53397,155.143 226.38297,156.646 226.38297,164.922 L 226.38297,175.832 L 254.58297,175.832 L 254.58297,164.922 C 254.58297,156.646 254.43197,155.143 244.57497,153.711 L 244.57497,152.584 L 270.53397,152.584 L 270.53397,153.711 C 261.50397,154.916 261.42997,157.172 261.20397,164.922 L 261.20397,191.406 C 261.42997,199.156 261.50397,201.414 270.53397,202.617 L 270.53397,203.746 L 244.57497,203.746 L 244.57497,202.617 C 254.43197,201.188 254.58297,199.684 254.58297,191.406 L 254.58297,178.992 L 226.38297,178.992 L 226.38297,191.406"
     style="fill:#000000;fill-opacity:1;fill-rule:nonzero;stroke-width:0;stroke-linecap:butt;stroke-linejoin:miter;stroke-miterlimit:10"
     id="path25" />
  <path
     d="M 158.29297,320.895 C 158.29297,320.895 163.19297,320.846 167.94297,325.596 C 172.69397,330.346 181.55397,340.889 184.59497,343.996 C 191.34197,350.896 196.29297,347.996 196.29297,347.996 C 196.29297,347.996 191.69397,347.697 187.74597,343.746 C 183.84497,339.846 172.94397,327.195 169.79397,324.045 C 163.89397,318.145 158.29297,320.895 158.29297,320.895"
     style="fill:#000000;fill-opacity:1;fill-rule:nonzero;stroke-width:0;stroke-linecap:butt;stroke-linejoin:miter;stroke-miterlimit:10;stroke-opacity:1"
     id="path29" />
  <path
     d="M 169.11797,320.895 C 169.11797,320.895 174.01897,320.846 178.76997,325.596 C 183.51997,330.346 192.37697,340.889 195.41797,343.996 C 202.16997,350.896 207.11997,347.996 207.11997,347.996 C 207.11997,347.996 202.51797,347.697 198.56897,343.746 C 194.66797,339.846 183.76997,327.195 180.61897,324.045 C 174.71897,318.145 169.11797,320.895 169.11797,320.895"
     style="fill:#000000;fill-opacity:1;fill-rule:nonzero;stroke-width:0;stroke-linecap:butt;stroke-linejoin:miter;stroke-miterlimit:10;stroke-opacity:1"
     id="path33" />
  <path
     d="M 209.69597,320.895 C 209.69597,320.895 204.79497,320.846 200.04297,325.596 C 195.29297,330.346 186.43597,340.889 183.39497,343.996 C 176.64397,350.896 171.69297,347.996 171.69297,347.996 C 171.69297,347.996 176.29397,347.697 180.24397,343.746 C 184.14497,339.846 195.04297,327.195 198.19397,324.045 C 204.09397,318.145 209.69597,320.895 209.69597,320.895"
     style="fill:#000000;fill-opacity:1;fill-rule:nonzero;stroke-width:0;stroke-linecap:butt;stroke-linejoin:miter;stroke-miterlimit:10;stroke-opacity:1"
     id="path37" />
  <path
     d="M 198.86997,320.895 C 198.86997,320.895 193.96697,320.846 189.21797,325.596 C 184.46997,330.346 175.60997,340.889 172.56797,343.996 C 165.81797,350.896 160.86797,347.996 160.86797,347.996 C 160.86797,347.996 165.46897,347.697 169.41897,343.746 C 173.31897,339.846 184.21997,327.195 187.37097,324.045 C 193.26797,318.145 198.86997,320.895 198.86997,320.895"
     style="fill:#000000;fill-opacity:1;fill-rule:nonzero;stroke-width:0;stroke-linecap:butt;stroke-linejoin:miter;stroke-miterlimit:10;stroke-opacity:1"
     id="path41" />
  <path
     d="M 224.09997,111.591 C 211.47097,106.911 198.13897,104.536 184.47297,104.536 L 183.57997,104.536 C 169.91197,104.536 156.57997,106.911 143.95097,111.591"
     style="fill:none;fill-opacity:1;stroke:#000000;stroke-width:2.55620003;stroke-linecap:round;stroke-linejoin:miter;stroke-miterlimit:4;stroke-opacity:1"
     id="path45" />
  <path
     d="M 101.74997,221.566 L 105.76197,221.566 L 110.22297,235.066 L 110.26897,235.066 L 114.75497,221.566 L 118.38497,221.566 L 112.07397,238.697 L 108.06297,238.697 L 101.74997,221.566"
     style="fill:#000000;fill-opacity:1;fill-rule:nonzero;stroke-width:0;stroke-linecap:round;stroke-linejoin:miter;stroke-miterlimit:4"
     id="path49" />
  <path
     d="M 123.57297,221.566 L 135.05697,221.566 L 135.05697,224.416 L 127.25197,224.416 L 127.25197,228.424 L 134.55997,228.424 L 134.55997,231.271 L 127.25197,231.271 L 127.25197,235.85 L 135.31897,235.85 L 135.31897,238.697 L 123.57297,238.697 L 123.57297,221.566"
     style="fill:#000000;fill-opacity:1;fill-rule:nonzero;stroke-width:0;stroke-linecap:round;stroke-linejoin:miter;stroke-miterlimit:4"
     id="path53" />
  <path
     d="M 140.48197,221.566 L 154.36197,221.566 L 154.36197,224.416 L 149.26197,224.416 L 149.26197,238.697 L 145.58297,238.697 L 145.58297,224.416 L 140.48197,224.416 L 140.48197,221.566"
     style="fill:#000000;fill-opacity:1;fill-rule:nonzero;stroke-width:0;stroke-linecap:round;stroke-linejoin:miter;stroke-miterlimit:4"
     id="path57" />
  <path
     d="M 159.57097,221.566 L 171.05397,221.566 L 171.05397,224.416 L 163.24797,224.416 L 163.24797,228.424 L 170.55697,228.424 L 170.55697,231.271 L 163.24797,231.271 L 163.24797,235.85 L 171.31397,235.85 L 171.31397,238.697 L 159.57097,238.697 L 159.57097,221.566"
     style="fill:#000000;fill-opacity:1;fill-rule:nonzero;stroke-width:0;stroke-linecap:round;stroke-linejoin:miter;stroke-miterlimit:4"
     id="path61" />
  <path
     d="M 188.49397,238.697 L 181.73197,224.461 L 181.68697,224.506 L 181.68697,238.697 L 178.24497,238.697 L 178.24497,221.566 L 183.70197,221.566 L 190.22397,235.041 L 190.27097,234.994 L 190.27097,221.566 L 193.71097,221.566 L 193.71097,238.697 L 188.49397,238.697"
     style="fill:#000000;fill-opacity:1;fill-rule:nonzero;stroke-width:0;stroke-linecap:round;stroke-linejoin:miter;stroke-miterlimit:4"
     id="path65" />
  <path
     d="M 209.23297,226.451 C 209.08997,224.721 208.16297,223.867 206.38697,223.867 C 205.03397,223.867 203.65897,224.58 203.65897,226.076 C 203.65897,227.924 205.31897,228.139 206.78997,228.494 C 209.39697,229.158 213.24497,229.893 213.24497,233.334 C 213.24497,237.58 209.54197,239.049 205.86197,239.049 C 201.95197,239.049 199.16997,237.533 199.29297,233.217 L 203.03797,233.217 C 202.90097,235.115 203.99097,236.393 205.91297,236.393 C 207.38097,236.393 209.32697,235.945 209.32697,234.115 C 209.32697,232.1 206.88497,231.959 205.41697,231.58 C 203.01797,230.982 199.74097,229.893 199.74097,226.857 C 199.74097,222.943 203.34797,221.21 206.86197,221.21 C 210.18197,221.21 212.76797,223.014 212.76797,226.451 L 209.23297,226.451"
     style="fill:#000000;fill-opacity:1;fill-rule:nonzero;stroke-width:0;stroke-linecap:round;stroke-linejoin:miter;stroke-miterlimit:4"
     id="path69" />
  <path
     d="M 222.48697,228.971 L 222.53397,228.971 L 228.22897,221.566 L 232.52597,221.566 L 226.23497,229.23 L 233.07297,238.697 L 228.49097,238.697 L 222.53397,229.967 L 222.48697,229.967 L 222.48697,238.697 L 218.80897,238.697 L 218.80897,221.566 L 222.48697,221.566 L 222.48697,228.971"
     style="fill:#000000;fill-opacity:1;fill-rule:nonzero;stroke-width:0;stroke-linecap:round;stroke-linejoin:miter;stroke-miterlimit:4"
     id="path73" />
  <path
     d="M 236.00397,238.697 L 242.19397,221.566 L 246.56297,221.566 L 252.51797,238.697 L 248.81697,238.697 L 247.58397,235.066 L 240.79697,235.066 L 239.51397,238.697 L 236.00397,238.697 M 246.65897,232.219 L 244.30697,224.912 L 244.26197,224.912 L 241.74697,232.219 L 246.65897,232.219"
     style="fill:#000000;fill-opacity:1;fill-rule:nonzero;stroke-width:0;stroke-linecap:round;stroke-linejoin:miter;stroke-miterlimit:4"
     id="path77" />
  <path
     d="M 257.05097,238.697 L 257.05097,221.566 L 262.34197,221.566 C 266.13897,221.589 269.34397,222.49 269.34397,226.832 C 269.34397,229.943 267.23097,231.98 263.41097,232.1 L 260.73097,232.1 L 260.73097,238.697 L 257.05097,238.697 M 260.73097,229.252 C 262.77197,229.158 265.43197,229.869 265.43197,226.832 C 265.43197,223.795 262.77197,224.506 260.73097,224.416 L 260.73097,229.252"
     style="fill:#000000;fill-opacity:1;fill-rule:nonzero;stroke-width:0;stroke-linecap:round;stroke-linejoin:miter;stroke-miterlimit:4"
     id="path81" />
  <path
     d="M 103.17997,258.803 C 103.17997,253.75 105.74197,249.879 111.41397,249.879 C 117.08497,249.879 119.64597,253.75 119.64597,258.803 C 119.64597,263.854 117.08497,267.723 111.41397,267.723 C 105.74197,267.723 103.17997,263.854 103.17997,258.803 z M 107.09597,258.803 C 107.09597,261.744 107.78397,265.064 111.41397,265.064 C 115.04497,265.064 115.73197,261.744 115.73197,258.803 C 115.73197,255.857 115.04497,252.537 111.41397,252.537 C 107.78397,252.537 107.09597,255.857 107.09597,258.803"
     style="fill:#000000;fill-opacity:1;fill-rule:nonzero;stroke-width:0;stroke-linecap:round;stroke-linejoin:miter;stroke-miterlimit:4"
     id="path85" />
  <path
     d="M 134.97897,255.787 C 135.00097,253.986 133.91197,252.537 131.70397,252.537 C 129.09397,252.537 128.43197,256.406 128.43197,258.803 C 128.43197,261.197 129.09397,265.064 131.70397,265.064 C 133.91197,265.064 135.00097,263.615 134.97897,261.814 L 138.89397,261.814 C 138.72897,266.111 135.64497,267.723 131.70397,267.723 C 126.74497,267.723 124.51597,263.807 124.51597,258.803 C 124.51597,253.795 126.74497,249.879 131.70397,249.879 C 135.64497,249.879 138.72897,251.49 138.89397,255.787 L 134.97897,255.787"
     style="fill:#000000;fill-opacity:1;fill-rule:nonzero;stroke-width:0;stroke-linecap:round;stroke-linejoin:miter;stroke-miterlimit:4"
     id="path89" />
  <path
     d="M 144.48697,267.365 L 144.48697,250.236 L 148.16397,250.236 L 148.16397,256.998 L 154.64197,256.998 L 154.64197,250.236 L 158.36597,250.236 L 158.36597,267.365 L 154.68897,267.365 L 154.68897,259.844 L 148.16397,259.844 L 148.16397,267.365 L 144.48697,267.365"
     style="fill:#000000;fill-opacity:1;fill-rule:nonzero;stroke-width:0;stroke-linecap:round;stroke-linejoin:miter;stroke-miterlimit:4"
     id="path93" />
  <path
     d="M 177.47997,257.639 L 177.52797,257.639 L 183.22497,250.236 L 187.51997,250.236 L 181.22897,257.9 L 188.06197,267.365 L 183.48397,267.365 L 177.52797,258.635 L 177.47997,258.635 L 177.47997,267.365 L 173.80397,267.365 L 173.80397,250.236 L 177.47997,250.236 L 177.47997,257.639"
     style="fill:#000000;fill-opacity:1;fill-rule:nonzero;stroke-width:0;stroke-linecap:round;stroke-linejoin:miter;stroke-miterlimit:4"
     id="path97" />
  <path
     d="M 190.93097,258.803 C 190.93097,253.75 193.49097,249.879 199.16297,249.879 C 204.83097,249.879 207.39297,253.75 207.39297,258.803 C 207.39297,263.854 204.83097,267.723 199.16297,267.723 C 193.49097,267.723 190.93097,263.854 190.93097,258.803 z M 194.84197,258.803 C 194.84197,261.744 195.52597,265.064 199.16297,265.064 C 202.79297,265.064 203.47897,261.744 203.47897,258.803 C 203.47897,255.857 202.79297,252.537 199.16297,252.537 C 195.52597,252.537 194.84197,255.857 194.84197,258.803"
     style="fill:#000000;fill-opacity:1;fill-rule:nonzero;stroke-width:0;stroke-linecap:round;stroke-linejoin:miter;stroke-miterlimit:4"
     id="path101" />
  <path
     d="M 222.93597,267.365 L 216.16997,253.131 L 216.12497,253.178 L 216.12497,267.365 L 212.68797,267.365 L 212.68797,250.236 L 218.14297,250.236 L 224.66697,263.713 L 224.71497,263.664 L 224.71497,250.236 L 228.15497,250.236 L 228.15497,267.365 L 222.93597,267.365"
     style="fill:#000000;fill-opacity:1;fill-rule:nonzero;stroke-width:0;stroke-linecap:round;stroke-linejoin:miter;stroke-miterlimit:4"
     id="path105" />
  <path
     d="M 243.91997,255.123 C 243.77797,253.393 242.84997,252.537 241.07497,252.537 C 239.72097,252.537 238.34597,253.252 238.34597,254.744 C 238.34597,256.594 240.00597,256.809 241.47697,257.164 C 244.08797,257.826 247.93197,258.564 247.93197,262.006 C 247.93197,266.25 244.22897,267.723 240.55297,267.723 C 236.63897,267.723 233.85797,266.205 233.97897,261.885 L 237.72897,261.885 C 237.58797,263.783 238.67797,265.064 240.59997,265.064 C 242.07097,265.064 244.01397,264.615 244.01397,262.787 C 244.01397,260.771 241.57297,260.627 240.10397,260.25 C 237.70597,259.654 234.42797,258.564 234.42797,255.525 C 234.42797,251.613 238.03597,249.879 241.54897,249.879 C 244.86997,249.879 247.45597,251.682 247.45597,255.123 L 243.91997,255.123"
     style="fill:#000000;fill-opacity:1;fill-rule:nonzero;stroke-width:0;stroke-linecap:round;stroke-linejoin:miter;stroke-miterlimit:4"
     id="path109" />
  <path
     d="M 252.30097,250.236 L 266.18197,250.236 L 266.18197,253.084 L 261.08397,253.084 L 261.08397,267.365 L 257.40497,267.365 L 257.40497,253.084 L 252.30097,253.084 L 252.30097,250.236"
     style="fill:#000000;fill-opacity:1;fill-rule:nonzero;stroke-width:0;stroke-linecap:round;stroke-linejoin:miter;stroke-miterlimit:4"
     id="path113" />
  <path
     d="M 197.58497,82.279 C 197.60097,82.313 197.62297,82.344 197.63997,82.379 C 197.65997,82.355 197.67897,82.334 197.69897,82.31 L 197.58497,82.279"
     style="fill:#ffffff;fill-rule:nonzero;stroke-width:0;stroke-linecap:round;stroke-linejoin:miter;stroke-miterlimit:4"
     id="path117" />
  <path
     d="M 250.34497,78.942 C 250.34497,78.942 250.33197,78.937 250.32097,78.933 C 251.48697,77.856 252.22197,76.32 252.22197,74.613 C 252.22197,71.361 249.57597,68.714 246.32597,68.714 C 246.06597,68.714 245.80997,68.737 245.55797,68.77 C 245.51697,68.605 245.46397,68.437 245.41697,68.271 C 247.00897,67.451 248.11097,65.808 248.11097,63.896 C 248.11097,61.173 245.89797,58.959 243.17697,58.959 C 242.26497,58.959 241.41897,59.224 240.68497,59.657 C 240.54397,59.492 240.40997,59.328 240.26097,59.164 C 241.02497,58.423 241.50497,57.392 241.50497,56.248 C 241.50497,54.004 239.67697,52.178 237.43297,52.178 C 236.05397,52.178 234.83697,52.871 234.10097,53.923 C 233.87097,53.769 233.63397,53.615 233.39397,53.462 C 233.84897,52.848 234.12797,52.095 234.12797,51.274 C 234.12797,49.231 232.46197,47.568 230.41697,47.568 C 228.81397,47.568 227.45797,48.6 226.94497,50.031 C 226.56597,49.863 226.17097,49.699 225.77697,49.535 C 226.07397,49.034 226.25697,48.456 226.25697,47.832 C 226.25697,45.979 224.74997,44.471 222.89797,44.471 C 221.22197,44.471 219.84297,45.708 219.59297,47.314 C 219.33897,47.236 219.09897,47.154 218.84097,47.077 C 218.28497,45.111 216.49397,43.659 214.35097,43.659 C 213.87497,43.659 213.41697,43.741 212.98597,43.878 C 212.81797,43.739 212.64597,43.602 212.46997,43.467 C 212.47397,43.394 212.48397,43.323 212.48397,43.248 C 212.48397,41.069 210.70697,39.297 208.52497,39.297 C 207.66697,39.297 206.87797,39.579 206.23197,40.047 C 206.07797,39.987 205.92497,39.927 205.76897,39.869 C 205.76897,39.836 205.77897,39.805 205.77897,39.772 C 205.77897,37.801 204.17097,36.198 202.19897,36.198 C 200.86097,36.198 199.70697,36.948 199.09497,38.043 C 198.82197,37.99 198.54097,37.94 198.25697,37.889 C 198.25897,37.847 198.27097,37.806 198.27097,37.762 C 198.27097,35.967 196.80797,34.506 195.00897,34.506 C 193.45097,34.506 192.14797,35.613 191.83497,37.082 C 191.58197,37.062 191.31997,37.045 191.06097,37.027 C 191.45797,36.099 191.67897,35.078 191.67897,34.007 C 191.67897,31.051 190.00397,28.482 187.55797,27.19 C 187.55797,26.394 187.55797,23.974 187.55797,22.779 C 188.19997,22.779 188.84997,22.779 188.84997,22.779 C 190.20797,22.779 191.19197,21.272 191.19197,19.197 C 191.19197,17.126 190.20797,15.624 188.84997,15.624 C 188.84997,15.624 188.19997,15.624 187.55797,15.624 C 187.55797,14.982 187.55797,14.331 187.55797,14.331 C 187.55797,12.976 186.05397,11.993 183.98297,11.993 C 181.90897,11.993 180.40297,12.976 180.40297,14.331 C 180.40297,14.331 180.40297,14.982 180.40297,15.624 C 179.76397,15.624 179.11597,15.624 179.11597,15.624 C 177.75797,15.624 176.77197,17.126 176.77197,19.197 C 176.77197,21.272 177.75797,22.779 179.11597,22.779 C 179.11597,22.779 179.76397,22.779 180.40297,22.779 C 180.40297,23.973 180.40297,26.389 180.40297,27.187 C 177.95097,28.478 176.27297,31.049 176.27297,34.007 C 176.27297,35.073 176.49097,36.089 176.88497,37.014 C 176.56397,37.035 176.24297,37.057 175.92897,37.082 C 175.61597,35.613 174.31297,34.506 172.75497,34.506 C 170.95697,34.506 169.49297,35.967 169.49297,37.762 C 169.49297,37.806 169.50397,37.847 169.50597,37.889 C 169.22397,37.94 168.94197,37.99 168.66697,38.044 C 168.05697,36.948 166.90297,36.198 165.56497,36.198 C 163.59097,36.198 161.98497,37.801 161.98497,39.772 C 161.98497,39.805 161.99397,39.836 161.99497,39.869 C 161.83797,39.927 161.68597,39.987 161.53197,40.047 C 160.88497,39.579 160.09697,39.297 159.23897,39.297 C 157.05597,39.297 155.27997,41.069 155.27997,43.248 C 155.27997,43.323 155.28897,43.394 155.29397,43.467 C 155.11797,43.603 154.94497,43.739 154.77697,43.878 C 154.34597,43.741 153.88997,43.659 153.41297,43.659 C 151.27097,43.659 149.47897,45.111 148.92097,47.077 C 148.66397,47.154 148.42397,47.236 148.17097,47.314 C 147.91997,45.708 146.53997,44.471 144.86597,44.471 C 143.01397,44.471 141.50697,45.979 141.50697,47.832 C 141.50697,48.456 141.68897,49.034 141.98697,49.535 C 141.59297,49.699 141.19697,49.863 140.81797,50.031 C 140.30497,48.6 138.94997,47.568 137.34697,47.568 C 135.29997,47.568 133.63597,49.231 133.63597,51.274 C 133.63597,52.095 133.91397,52.848 134.36897,53.463 C 134.12897,53.615 133.89297,53.769 133.66197,53.923 C 132.92497,52.871 131.70897,52.178 130.33097,52.178 C 128.08497,52.178 126.25897,54.004 126.25897,56.248 C 126.25897,57.392 126.73797,58.423 127.50197,59.164 C 127.35497,59.328 127.21997,59.493 127.07897,59.657 C 126.34397,59.224 125.49997,58.959 124.58697,58.959 C 121.86697,58.959 119.65297,61.173 119.65297,63.896 C 119.65297,65.808 120.75497,67.451 122.34597,68.271 C 122.29897,68.437 122.24597,68.605 122.20497,68.77 C 121.95297,68.737 121.69897,68.714 121.43797,68.714 C 118.18697,68.714 115.54197,71.361 115.54197,74.613 C 115.54197,76.318 116.27397,77.851 117.43597,78.928 C 117.41197,78.938 117.39797,78.943 117.39797,78.943 C 117.39797,78.943 119.23197,80.889 121.65597,84.014 C 120.96297,85.39 120.82497,87.041 121.42097,88.587 C 122.38597,91.048 124.89497,92.449 127.39997,92.122 C 129.69697,95.034 133.55597,98.521 136.70297,97.623 C 136.70297,97.623 156.39997,88.443 183.86097,88.406 C 211.31997,88.443 231.01897,97.623 231.01897,97.623 C 234.17697,98.525 238.05197,95.007 240.34497,92.089 C 242.92897,92.547 245.57597,91.132 246.56997,88.592 C 247.19897,86.963 247.02097,85.217 246.23197,83.799 C 248.06897,81.444 249.52797,79.811 250.07597,79.21 C 250.16597,79.121 250.25297,79.04 250.34497,78.942 z M 246.32597,70.714 C 248.47397,70.714 250.22197,72.464 250.22197,74.613 C 250.22197,76.122 249.34997,77.419 248.09097,78.065 C 247.12097,77.687 246.03697,77.264 245.27897,76.968 C 244.52797,76.675 243.75197,76.565 242.99697,76.606 C 242.64397,76.021 242.42897,75.344 242.42897,74.613 C 242.42897,72.464 244.17697,70.714 246.32597,70.714 z M 243.17697,60.959 C 244.79397,60.959 246.11097,62.276 246.11097,63.896 C 246.11097,65.517 244.79397,66.836 243.17697,66.836 C 241.55397,66.836 240.23397,65.517 240.23397,63.896 C 240.23397,62.276 241.55397,60.959 243.17697,60.959 z M 237.43297,54.177 C 238.57597,54.177 239.50497,55.106 239.50497,56.248 C 239.50497,57.389 238.57597,58.316 237.43297,58.316 C 236.29197,58.316 235.36497,57.389 235.36497,56.248 C 235.36497,55.106 236.29197,54.177 237.43297,54.177 z M 230.41697,49.568 C 231.36097,49.568 232.12797,50.334 232.12797,51.274 C 232.12797,52.214 231.36097,52.978 230.41697,52.978 C 229.47797,52.978 228.71597,52.214 228.71597,51.274 C 228.71597,50.334 229.47797,49.568 230.41697,49.568 z M 222.89797,46.471 C 223.64797,46.471 224.25697,47.082 224.25697,47.832 C 224.25697,48.582 223.64797,49.192 222.89797,49.192 C 222.14997,49.192 221.54097,48.582 221.54097,47.832 C 221.54097,47.082 222.14997,46.471 222.89797,46.471 z M 221.00697,56.25 C 221.00697,58.069 219.52897,59.548 217.70997,59.548 C 215.89197,59.548 214.41397,58.069 214.41397,56.25 C 214.41397,54.432 215.89197,52.953 217.70997,52.953 C 219.52897,52.953 221.00697,54.432 221.00697,56.25 z M 218.58697,74.897 L 218.60897,74.901 C 218.60097,74.901 218.59297,74.902 218.58497,74.902 C 218.58597,74.9 218.58597,74.899 218.58697,74.897 z M 214.49197,67.927 C 214.03797,67.837 213.58697,67.813 213.14497,67.836 C 212.96697,67.363 212.85697,66.857 212.85697,66.322 C 212.85697,63.93 214.80597,61.982 217.20297,61.982 C 219.59697,61.982 221.54397,63.93 221.54397,66.322 C 221.54397,68.385 220.09497,70.109 218.16397,70.548 C 217.39797,69.234 216.09697,68.239 214.49197,67.927 z M 214.35097,45.659 C 215.83197,45.659 217.03897,46.863 217.03897,48.344 C 217.03897,49.823 215.83197,51.026 214.35097,51.026 C 212.87497,51.026 211.67297,49.823 211.67297,48.344 C 211.67297,46.863 212.87497,45.659 214.35097,45.659 z M 208.52497,41.297 C 209.60497,41.297 210.48397,42.173 210.48397,43.248 C 210.48397,44.322 209.60497,45.196 208.52497,45.196 C 207.45097,45.196 206.57797,44.322 206.57797,43.248 C 206.57797,42.173 207.45097,41.297 208.52497,41.297 z M 202.19897,38.198 C 203.06997,38.198 203.77897,38.903 203.77897,39.772 C 203.77897,40.641 203.06997,41.348 202.19897,41.348 C 201.33497,41.348 200.63197,40.641 200.63197,39.772 C 200.63197,38.903 201.33497,38.198 202.19897,38.198 z M 195.00897,36.506 C 195.70497,36.506 196.27097,37.069 196.27097,37.762 C 196.27097,38.457 195.70497,39.022 195.00897,39.022 C 194.31997,39.022 193.76097,38.457 193.76097,37.762 C 193.76097,37.069 194.31997,36.506 195.00897,36.506 z M 189.47697,34.056 C 189.47697,34.161 189.46897,34.264 189.46097,34.369 C 189.42597,34.284 189.39697,34.182 189.39697,34.056 L 189.47697,34.056 M 189.45597,34.513 C 189.37497,35.379 189.09197,36.185 188.65697,36.889 C 188.17497,36.868 187.68097,36.852 187.18497,36.838 C 187.23297,36.611 187.26497,36.378 187.26497,36.137 C 187.26497,35.288 186.93097,34.52 186.39697,33.94 C 187.98897,34.079 189.03997,34.325 189.45597,34.513 z M 189.32697,71.026 L 189.33097,71.026 C 189.32997,71.026 189.32797,71.027 189.32697,71.027 C 189.32697,71.027 189.32697,71.027 189.32697,71.026 z M 187.30897,66.119 C 186.38297,65.401 185.22597,64.969 183.96797,64.969 C 182.72697,64.969 181.58497,65.389 180.66497,66.088 C 179.97797,65.305 179.54797,64.289 179.54797,63.164 C 179.54797,60.703 181.53797,58.713 183.99697,58.713 C 186.45797,58.713 188.45397,60.703 188.45397,63.164 C 188.45397,64.303 188.01297,65.331 187.30897,66.119 z M 183.99697,57.324 C 182.02097,57.324 180.41697,55.724 180.41697,53.748 C 180.41697,51.772 182.02097,50.168 183.99697,50.168 C 185.97797,50.168 187.58297,51.772 187.58297,53.748 C 187.58297,55.724 185.97797,57.324 183.99697,57.324 z M 184.00097,38.588 C 185.03397,38.588 185.87397,39.434 185.87397,40.469 C 185.87397,41.508 185.03397,42.352 184.00097,42.352 C 182.95997,42.352 182.11397,41.508 182.11397,40.469 C 182.11397,39.434 182.95997,38.588 184.00097,38.588 z M 182.75097,36.137 C 182.75097,35.444 183.31797,34.881 184.01497,34.881 C 184.70397,34.881 185.26397,35.444 185.26397,36.137 C 185.26397,36.83 184.70397,37.395 184.01497,37.395 C 183.31797,37.395 182.75097,36.83 182.75097,36.137 z M 183.99697,43.41 C 185.54197,43.41 186.78797,44.659 186.78797,46.202 C 186.78797,47.736 185.54197,48.993 183.99697,48.993 C 182.45797,48.993 181.20797,47.736 181.20797,46.202 C 181.20797,44.659 182.45797,43.41 183.99697,43.41 z M 189.13897,32.114 C 187.88997,31.806 186.32097,31.678 184.79497,31.645 L 184.79497,29.739 C 185.48097,29.646 186.07897,29.438 186.53997,29.139 C 187.73497,29.771 188.66697,30.831 189.13897,32.114 z M 179.30897,20.579 C 179.19597,20.443 178.97197,19.994 178.97197,19.197 C 178.97197,18.405 179.19497,17.958 179.30697,17.824 C 179.63097,17.824 182.60297,17.824 182.60297,17.824 C 182.60297,17.824 182.60297,14.854 182.60297,14.526 C 182.73897,14.414 183.18797,14.193 183.98297,14.193 C 184.77497,14.193 185.22097,14.414 185.35797,14.526 C 185.35797,14.853 185.35797,17.824 185.35797,17.824 C 185.35797,17.824 188.33097,17.824 188.65697,17.824 C 188.76997,17.959 188.99297,18.406 188.99297,19.197 C 188.99297,19.994 188.76797,20.443 188.65497,20.579 C 188.32897,20.579 185.35797,20.579 185.35797,20.579 C 185.35797,20.579 185.35797,26.894 185.35797,27.259 C 185.22097,27.372 184.77397,27.597 183.98297,27.597 C 183.18797,27.597 182.73897,27.372 182.60297,27.259 C 182.60297,26.893 182.60297,20.579 182.60297,20.579 C 182.60297,20.579 179.63397,20.579 179.30897,20.579 z M 181.41897,29.136 C 181.83997,29.411 182.38197,29.602 182.99597,29.706 L 182.99597,31.643 C 181.14997,31.674 179.81597,31.802 178.85797,31.999 C 179.34297,30.766 180.25697,29.75 181.41897,29.136 z M 181.66097,33.893 C 181.10097,34.478 180.75097,35.266 180.75097,36.137 C 180.75097,36.375 180.78097,36.606 180.82997,36.83 C 180.31097,36.844 179.79397,36.859 179.29197,36.88 C 178.83797,36.142 178.55397,35.293 178.49197,34.381 C 178.73697,34.252 179.64697,34.006 181.66097,33.893 z M 172.75497,36.506 C 173.44297,36.506 174.00297,37.069 174.00297,37.762 C 174.00297,38.457 173.44297,39.022 172.75497,39.022 C 172.05897,39.022 171.49297,38.457 171.49297,37.762 C 171.49297,37.069 172.05897,36.506 172.75497,36.506 z M 165.56497,38.198 C 166.42897,38.198 167.13197,38.903 167.13197,39.772 C 167.13197,40.641 166.42897,41.348 165.56497,41.348 C 164.69397,41.348 163.98497,40.641 163.98497,39.772 C 163.98497,38.903 164.69397,38.198 165.56497,38.198 z M 159.23897,41.297 C 160.31297,41.297 161.18697,42.173 161.18697,43.248 C 161.18697,44.322 160.31297,45.196 159.23897,45.196 C 158.15897,45.196 157.27997,44.322 157.27997,43.248 C 157.27997,42.173 158.15897,41.297 159.23897,41.297 z M 153.27797,67.927 C 151.67097,68.239 150.37097,69.234 149.60497,70.549 C 147.67097,70.112 146.21997,68.387 146.21997,66.322 C 146.21997,63.93 148.16697,61.982 150.56197,61.982 C 152.95797,61.982 154.90697,63.93 154.90697,66.322 C 154.90697,66.857 154.79697,67.363 154.61997,67.836 C 154.17897,67.813 153.72997,67.837 153.27797,67.927 z M 153.41297,45.659 C 154.88997,45.659 156.09097,46.863 156.09097,48.344 C 156.09097,49.823 154.88997,51.026 153.41297,51.026 C 151.93097,51.026 150.72597,49.823 150.72597,48.344 C 150.72597,46.863 151.93097,45.659 153.41297,45.659 z M 150.05397,52.953 C 151.87197,52.953 153.35097,54.432 153.35097,56.25 C 153.35097,58.069 151.87197,59.548 150.05397,59.548 C 148.23597,59.548 146.75697,58.069 146.75697,56.25 C 146.75697,54.432 148.23597,52.953 150.05397,52.953 z M 144.86597,46.471 C 145.61497,46.471 146.22397,47.082 146.22397,47.832 C 146.22397,48.582 145.61497,49.192 144.86597,49.192 C 144.11697,49.192 143.50697,48.582 143.50697,47.832 C 143.50697,47.082 144.11697,46.471 144.86597,46.471 z M 137.34697,49.568 C 138.28497,49.568 139.04797,50.334 139.04797,51.274 C 139.04797,52.214 138.28497,52.978 137.34697,52.978 C 136.40297,52.978 135.63597,52.214 135.63597,51.274 C 135.63597,50.334 136.40297,49.568 137.34697,49.568 z M 130.33097,54.177 C 131.47197,54.177 132.39897,55.106 132.39897,56.248 C 132.39897,57.389 131.47197,58.316 130.33097,58.316 C 129.18797,58.316 128.25897,57.389 128.25897,56.248 C 128.25897,55.106 129.18797,54.177 130.33097,54.177 z M 121.65297,63.896 C 121.65297,62.276 122.96897,60.959 124.58697,60.959 C 126.20997,60.959 127.52997,62.276 127.52997,63.896 C 127.52997,65.517 126.20997,66.836 124.58697,66.836 C 122.96897,66.836 121.65297,65.517 121.65297,63.896 z M 121.43797,70.714 C 123.58697,70.714 125.33497,72.464 125.33497,74.613 C 125.33497,75.344 125.11997,76.021 124.76797,76.606 C 124.01397,76.565 123.23997,76.676 122.49097,76.968 C 121.73197,77.264 120.64697,77.687 119.67497,78.066 C 118.41497,77.42 117.54197,76.123 117.54197,74.613 C 117.54197,72.464 119.28997,70.714 121.43797,70.714 z M 127.99097,89.927 C 126.12597,90.655 124.01697,89.728 123.28597,87.861 C 122.56597,85.998 123.49397,83.886 125.35597,83.16 C 127.21797,82.437 129.32697,83.363 130.05697,85.224 C 130.22397,85.656 130.30397,86.1 130.30397,86.537 C 130.30397,87.994 129.42397,89.371 127.99097,89.927 z M 150.53697,89.73 C 147.68897,90.287 144.88097,89.427 142.86097,87.631 C 142.11497,90.226 140.21097,92.457 137.50397,93.511 C 134.76197,94.581 131.68497,93.349 130.40097,90.756 C 130.74197,90.455 131.04597,90.118 131.30197,89.748 C 132.33497,90.231 133.51097,90.395 134.67497,90.163 C 134.78797,90.144 134.90597,90.12 135.02997,90.087 C 135.03797,90.085 135.04497,90.081 135.05297,90.079 C 135.22797,90.031 135.40197,89.983 135.60297,89.905 C 138.41897,88.809 139.81497,85.63 138.71797,82.815 C 137.70097,80.203 135.55397,79.389 133.39497,79.493 C 132.41097,79.537 131.42297,79.772 130.53897,80.117 C 130.23797,80.233 129.98297,80.465 129.70097,80.641 C 129.64897,80.375 129.57897,80.081 129.57897,80.081 C 129.04597,78.709 128.01497,77.677 126.77297,77.104 C 127.05797,76.5 127.24597,75.84 127.30797,75.145 L 127.46997,74.806 C 127.27497,72.318 127.57597,69.507 128.68997,66.645 C 128.99297,66.196 129.20697,65.687 129.34897,65.15 C 132.04097,59.665 137.93397,54.171 149.29397,50.548 C 149.37797,50.704 149.46297,50.859 149.56297,51.003 C 146.87497,51.255 144.75697,53.497 144.75697,56.25 C 144.75697,58.209 145.83697,59.904 147.42197,60.821 C 145.51197,61.914 144.21997,63.969 144.21997,66.322 C 144.21997,69.246 146.21097,71.707 148.90697,72.437 C 148.80797,73.057 148.80797,73.703 148.93597,74.353 C 148.93597,74.353 149.04097,74.646 149.13697,74.902 C 148.79897,74.906 148.44697,74.839 148.12697,74.906 C 145.16197,75.486 143.21897,78.371 143.80297,81.334 C 144.38297,84.293 147.26997,86.236 150.23397,85.654 C 152.48597,85.213 154.13297,83.433 154.53697,81.302 C 154.66197,81.713 154.93197,82.822 154.98597,83.107 C 155.58997,86.16 153.58997,89.131 150.53697,89.73 z M 151.62997,78.111 C 151.24297,76.154 152.52397,74.261 154.47897,73.877 C 156.43697,73.498 158.33097,74.767 158.70997,76.723 C 159.09697,78.68 157.81897,80.574 155.86397,80.957 C 153.91097,81.338 152.01097,80.066 151.62997,78.111 z M 177.08197,85.849 C 174.17797,85.849 171.77297,84.426 170.13497,82.279 C 168.93797,84.705 166.85397,86.533 164.00397,87.089 C 160.94897,87.689 157.97697,85.691 157.37897,82.639 C 157.32197,82.351 157.15997,81.224 157.11497,80.797 C 158.29897,82.617 160.49197,83.644 162.74597,83.201 C 165.71497,82.621 167.64797,79.736 167.06997,76.775 C 166.48997,73.812 163.60497,71.871 160.64297,72.451 C 160.32097,72.515 160.03297,72.696 159.72597,72.821 C 159.72097,72.55 159.70597,72.249 159.70597,72.249 C 159.44297,70.903 158.70397,69.773 157.70097,68.989 L 158.50697,67.594 C 155.31697,60.979 152.98997,42.165 180.06997,40.632 C 180.17697,40.696 180.28397,40.76 180.39397,40.819 C 177.08597,49.097 176.73897,67.623 176.73897,67.623 L 178.69697,68.885 C 178.54897,69.381 178.46697,69.905 178.46697,70.449 C 178.46697,70.449 178.51597,70.757 178.55697,71.027 C 178.22897,70.967 177.89497,70.836 177.56397,70.836 C 174.54497,70.836 172.08397,73.293 172.08397,76.314 C 172.08397,79.332 174.54497,81.789 177.56397,81.789 C 179.86297,81.789 181.81997,80.357 182.63097,78.346 C 182.67197,78.773 182.72097,79.912 182.72097,80.205 C 182.72097,83.314 180.19097,85.849 177.08197,85.849 z M 180.39397,74.627 C 180.39397,72.644 181.99297,71.042 183.97597,71.026 L 184.03397,71.026 C 186.01097,71.042 187.60997,72.644 187.60997,74.627 C 187.60997,76.621 185.99497,78.234 184.00497,78.234 C 182.00897,78.234 180.39397,76.621 180.39397,74.627 z M 210.34097,82.639 C 209.74397,85.691 206.77097,87.689 203.71797,87.089 C 200.90597,86.541 198.84297,84.754 197.63997,82.379 C 196.00497,84.486 193.67497,85.849 190.80297,85.849 C 187.69197,85.849 185.16297,83.314 185.16297,80.205 C 185.16297,79.912 185.21697,78.773 185.25197,78.346 C 186.06697,80.357 188.02197,81.789 190.32097,81.789 C 193.34097,81.789 195.79797,79.332 195.79797,76.314 C 195.79797,73.293 193.34097,70.836 190.32097,70.836 C 189.99497,70.836 189.67397,70.959 189.35097,71.021 C 189.39697,70.753 189.43997,70.448 189.43997,70.448 C 189.43997,69.967 189.37197,69.503 189.25397,69.058 L 191.21097,67.851 C 191.21097,67.851 191.00797,49.048 187.68297,40.756 C 187.74497,40.722 187.80397,40.681 187.86597,40.644 C 214.76097,42.246 212.43897,60.994 209.25697,67.594 L 210.05597,68.98 C 210.02097,69.007 209.99297,69.043 209.95797,69.072 C 209.80397,69.198 209.65997,69.334 209.52097,69.476 C 209.41697,69.581 209.31997,69.688 209.22497,69.801 C 209.16997,69.867 209.12097,69.938 209.06897,70.006 C 208.90697,70.219 208.75997,70.441 208.62897,70.678 C 208.61497,70.705 208.60197,70.733 208.58697,70.76 C 208.43397,71.052 208.30697,71.359 208.20697,71.683 C 208.20097,71.701 208.19697,71.719 208.19097,71.735 C 208.13997,71.907 208.07597,72.071 208.04097,72.25 C 208.04097,72.25 208.02497,72.558 208.02097,72.832 C 207.70297,72.707 207.40797,72.517 207.07797,72.451 C 204.11497,71.871 201.22997,73.812 200.65197,76.775 C 200.07197,79.736 202.00497,82.621 204.97397,83.201 C 207.22997,83.644 209.42097,82.617 210.60697,80.797 C 210.55997,81.224 210.39797,82.351 210.34097,82.639 z M 209.28297,76.723 C 209.64897,74.853 211.39897,73.627 213.26197,73.853 L 213.76297,73.952 C 215.56997,74.444 216.73297,76.24 216.36497,78.111 C 215.98197,80.066 214.08297,81.338 212.13197,80.957 C 210.17297,80.574 208.89797,78.68 209.28297,76.723 z M 230.21797,93.511 C 227.50897,92.457 225.60497,90.226 224.86097,87.631 C 222.83897,89.427 220.03097,90.287 217.18497,89.73 C 214.12997,89.131 212.12997,86.16 212.73397,83.107 C 212.79097,82.822 213.05797,81.713 213.18497,81.302 C 213.58897,83.433 215.23397,85.213 217.48597,85.654 C 220.45097,86.236 223.33897,84.293 223.91697,81.334 C 224.50097,78.371 222.55797,75.486 219.59497,74.906 C 219.28297,74.841 218.93797,74.902 218.60897,74.901 C 218.70297,74.645 218.80997,74.352 218.80997,74.352 C 218.93797,73.703 218.93797,73.058 218.83797,72.44 C 221.54297,71.715 223.54397,69.252 223.54397,66.322 C 223.54397,63.969 222.25097,61.914 220.34097,60.821 C 221.92497,59.904 223.00697,58.209 223.00697,56.25 C 223.00697,53.497 220.88797,51.255 218.20097,51.003 C 218.30197,50.859 218.38597,50.704 218.46997,50.548 C 229.82997,54.17 235.72197,59.665 238.41397,65.149 C 238.55597,65.687 238.77097,66.196 239.07397,66.646 C 240.18897,69.507 240.48997,72.318 240.29397,74.806 L 240.45697,75.145 C 240.51897,75.838 240.70297,76.494 240.98597,77.098 C 240.93897,77.119 240.89897,77.152 240.85297,77.174 C 240.63797,77.281 240.42897,77.398 240.22997,77.532 C 240.11997,77.606 240.01497,77.686 239.91097,77.768 C 239.78097,77.869 239.65597,77.977 239.53497,78.092 C 239.38197,78.233 239.24197,78.383 239.10497,78.542 C 239.03297,78.628 238.96397,78.717 238.89697,78.807 C 238.74197,79.014 238.60297,79.233 238.47597,79.465 C 238.43597,79.54 238.39797,79.615 238.36097,79.693 C 238.29697,79.824 238.21697,79.943 238.16397,80.082 C 238.16397,80.082 238.09597,80.375 238.04297,80.641 C 237.75897,80.464 237.50697,80.232 237.20497,80.116 C 236.14397,79.703 234.93597,79.446 233.76297,79.489 C 231.81197,79.552 229.95397,80.442 229.02897,82.816 C 227.93097,85.631 229.32797,88.81 232.14397,89.906 C 233.66697,90.501 235.28697,90.346 236.63197,89.643 C 236.85697,89.984 237.10897,90.302 237.39797,90.583 C 236.16897,93.292 233.01897,94.604 230.21797,93.511 z M 244.70697,87.866 C 243.97797,89.728 241.86897,90.655 240.00697,89.927 C 239.10097,89.576 238.38797,88.895 237.99797,88.01 C 237.79097,87.541 237.68697,87.044 237.68697,86.546 C 237.68697,86.1 237.77097,85.653 237.93697,85.224 C 238.66697,83.363 240.77697,82.437 242.64197,83.161 C 244.50097,83.886 245.42697,85.998 244.70697,87.866"
     style="fill:#000000;fill-opacity:1;fill-rule:nonzero;stroke:#000000;stroke-width:0;stroke-linecap:round;stroke-linejoin:miter;stroke-miterlimit:4;stroke-opacity:1"
     id="path121" />
  <path
     d="M 224.54197,106.145 C 212.47297,101.688 199.80497,99.299 186.82497,99.038 L 184.07597,100.603 L 181.33197,99.042 C 168.24897,99.336 155.48397,101.795 143.33697,106.353 L 141.61397,108.398 L 136.26897,105.431 L 138.12697,100.462 L 138.40897,99.707 L 140.80597,100.103 C 153.89997,95.077 167.67997,92.409 181.80397,92.157 L 183.58197,91.145 L 184.07597,90.864 L 186.34097,92.153 C 200.52497,92.372 214.36397,95.027 227.51897,100.059 L 228.85097,99.839 L 229.64597,99.707 L 231.78397,105.431 L 226.43897,108.398 L 224.54197,106.145 M 208.65897,100.38 C 209.83597,100.622 210.99497,99.864 211.22697,98.688 C 211.47697,97.506 210.72297,96.35 209.53597,96.108 L 205.23697,95.222 C 204.05697,94.977 202.90097,95.741 202.65897,96.921 C 202.42197,98.102 203.17997,99.253 204.36197,99.499 L 208.65897,100.38 M 224.12197,102.605 C 225.16797,103.848 226.32097,105.215 226.89797,105.901 C 227.62597,105.497 228.60297,104.955 229.35797,104.536 C 229.05597,103.729 228.66597,102.684 228.37497,101.904 C 227.48997,102.05 225.72497,102.341 224.12197,102.605 z M 179.56197,95.735 C 181.17897,96.654 183.44497,97.943 184.07597,98.302 C 184.70697,97.942 186.97097,96.654 188.58497,95.735 C 186.97097,94.815 184.70797,93.525 184.07597,93.165 C 183.44397,93.525 181.17797,94.814 179.56197,95.735 z M 163.69097,99.499 C 164.87497,99.253 165.63097,98.102 165.39497,96.921 C 165.15197,95.741 163.99597,94.977 162.81397,95.222 L 158.51797,96.108 C 157.32997,96.35 156.57797,97.506 156.82397,98.688 C 157.06097,99.864 158.21697,100.622 159.39597,100.38 L 163.69097,99.499 M 138.69597,104.536 C 139.44997,104.955 140.42697,105.497 141.15497,105.901 C 141.73297,105.215 142.88497,103.848 143.93197,102.605 C 142.32897,102.341 140.56397,102.05 139.68097,101.904 C 139.38897,102.683 138.99797,103.729 138.69597,104.536"
     style="fill:#000000;fill-opacity:1;fill-rule:nonzero;stroke:#000000;stroke-width:0;stroke-linecap:round;stroke-linejoin:miter;stroke-miterlimit:4;stroke-opacity:1"
     id="path125" />
  <path
     d="M 69.512668,128.607 C 69.620368,127.591 69.511968,126.455 69.155268,125.31 C 68.240968,122.403 65.534168,120.216 64.022468,120.685 C 63.831068,120.749 63.555668,120.233 63.350568,120.302 C 63.155268,120.362 63.225568,120.94 63.030268,121.001 C 61.514368,121.47 60.539768,124.815 61.451868,127.726 C 61.807868,128.867 62.364268,129.859 63.030268,130.632"
     style="fill:none;stroke:#000000;stroke-width:2.83459997;stroke-linecap:butt;stroke-linejoin:miter;stroke-miterlimit:4;stroke-opacity:1"
     id="path129" />
  <path
     d="M 67.674568,134.063 C 70.615968,133.147 72.447968,130.62 71.622068,127.978 C 71.319068,126.997 70.498768,126.944 70.498768,126.944 C 70.756568,127.718 69.020268,129.448 66.477268,130.251 C 63.940168,131.04 61.526368,130.608 61.299568,129.819 C 61.299568,129.819 60.655268,130.337 60.963868,131.323 C 61.784168,133.966 64.733368,134.987 67.674568,134.063 z "
     style="fill:none;stroke:#000000;stroke-width:2.83459997;stroke-linecap:butt;stroke-linejoin:round;stroke-miterlimit:4;stroke-opacity:1"
     id="path133" />
  <path
     d="M 68.514168,133.877 C 68.685768,134.391 68.756568,134.499 69.100568,134.966 C 69.450168,135.44 69.850568,135.823 70.288068,136.128"
     style="fill:none;stroke:#000000;stroke-width:2.83459997;stroke-linecap:round;stroke-linejoin:miter;stroke-miterlimit:4;stroke-opacity:1"
     id="path137" />
  <path
     d="M 82.899168,138.198 C 83.826668,137.771 84.937968,137.51 86.136968,137.481 C 89.183568,137.417 92.122568,139.28 92.162568,140.863 C 92.162568,141.065 92.739468,141.161 92.739968,141.377 C 92.745368,141.581 92.175268,141.7 92.180668,141.904 C 92.221668,143.49 89.364268,145.484 86.315168,145.553 C 85.120368,145.581 84.001968,145.372 83.056368,144.988"
     style="fill:none;stroke:#000000;stroke-width:2.83459997;stroke-linecap:butt;stroke-linejoin:miter;stroke-miterlimit:4;stroke-opacity:1"
     id="path141" />
  <path
     d="M 78.318368,141.688 C 78.243868,138.607 80.051968,136.062 82.820068,135.999 C 83.845668,135.972 84.158168,136.731 84.158168,136.731 C 83.343268,136.735 82.259768,138.935 82.313468,141.601 C 82.378168,144.257 83.560268,146.405 84.380368,146.367 C 84.380368,146.367 84.096668,147.144 83.063468,147.167 C 80.297368,147.236 78.385268,144.77 78.318368,141.688 z "
     style="fill:none;stroke:#000000;stroke-width:2.83459997;stroke-linecap:butt;stroke-linejoin:round;stroke-miterlimit:4;stroke-opacity:1"
     id="path145" />
  <path
     d="M 78.226068,140.832 C 77.684068,140.834 77.559568,140.802 77.006568,140.626 C 76.445768,140.446 75.954568,140.189 75.526368,139.873"
     style="fill:none;stroke:#000000;stroke-width:2.83459997;stroke-linecap:round;stroke-linejoin:miter;stroke-miterlimit:4;stroke-opacity:1"
     id="path149" />
  <path
     d="M 61.292468,195.954 C 61.885968,195.124 62.721168,194.345 63.747568,193.724 C 66.360568,192.156 69.836168,192.314 70.657468,193.67 C 70.757068,193.845 71.306168,193.641 71.414568,193.829 C 71.519768,194.003 71.083468,194.39 71.189668,194.564 C 72.013168,195.921 70.521968,199.071 67.909668,200.644 C 66.885968,201.261 65.810768,201.634 64.800268,201.771"
     style="fill:none;stroke:#000000;stroke-width:2.83459997;stroke-linecap:butt;stroke-linejoin:miter;stroke-miterlimit:4;stroke-opacity:1"
     id="path153" />
  <path
     d="M 59.048068,201.257 C 57.455568,198.62 57.760968,195.513 60.132068,194.084 C 61.009268,193.551 61.657468,194.056 61.657468,194.056 C 60.952368,194.463 61.102768,196.91 62.472868,199.198 C 63.847868,201.472 65.939668,202.75 66.633268,202.311 C 66.633268,202.311 66.771968,203.125 65.886968,203.657 C 63.520968,205.092 60.635968,203.899 59.048068,201.257 z "
     style="fill:none;stroke:#000000;stroke-width:2.83459997;stroke-linecap:butt;stroke-linejoin:round;stroke-miterlimit:4;stroke-opacity:1"
     id="path157" />
  <path
     d="M 58.543468,200.561 C 58.073468,200.831 57.949468,200.864 57.382068,200.985 C 56.806168,201.108 56.252168,201.13 55.723868,201.067"
     style="fill:none;stroke:#000000;stroke-width:2.83459997;stroke-linecap:round;stroke-linejoin:miter;stroke-miterlimit:4;stroke-opacity:1"
     id="path161" />
  <path
     d="M 45.507568,194.721 C 45.103268,193.783 44.450168,192.847 43.576868,192.024 C 41.353268,189.942 37.920868,189.367 36.833968,190.518 C 36.698968,190.668 36.206068,190.354 36.060268,190.514 C 35.919668,190.663 36.265368,191.132 36.124968,191.281 C 35.035168,192.434 35.830068,195.826 38.054668,197.913 C 38.924568,198.732 39.897468,199.323 40.856168,199.669"
     style="fill:none;stroke:#000000;stroke-width:2.83459997;stroke-linecap:butt;stroke-linejoin:miter;stroke-miterlimit:4;stroke-opacity:1"
     id="path165" />
  <path
     d="M 46.587868,200.376 C 48.700168,198.134 49.053468,195.032 47.035868,193.137 C 46.290768,192.431 45.550768,192.788 45.550768,192.788 C 46.155268,193.335 45.493168,195.695 43.671868,197.644 C 41.849368,199.578 39.535168,200.388 38.950168,199.812 C 38.950168,199.812 38.643568,200.579 39.396468,201.287 C 41.409168,203.186 44.479468,202.626 46.587868,200.376 z "
     style="fill:none;stroke:#000000;stroke-width:2.83459997;stroke-linecap:butt;stroke-linejoin:round;stroke-miterlimit:4;stroke-opacity:1"
     id="path169" />
  <path
     d="M 47.228268,199.803 C 47.629868,200.165 47.744868,200.225 48.273168,200.462 C 48.810268,200.704 49.347668,200.841 49.877668,200.891"
     style="fill:none;stroke:#000000;stroke-width:2.83459997;stroke-linecap:round;stroke-linejoin:miter;stroke-miterlimit:4;stroke-opacity:1"
     id="path173" />
  <path
     d="M 70.935068,257.391 C 71.051968,256.376 71.406468,255.29 72.004368,254.25 C 73.532468,251.614 76.650868,250.071 78.025868,250.86 C 78.196768,250.964 78.578368,250.521 78.764168,250.632 C 78.940668,250.733 78.746568,251.283 78.923068,251.385 C 80.300268,252.173 80.519768,255.652 78.994368,258.292 C 78.397668,259.327 77.638168,260.174 76.819568,260.782"
     style="fill:none;stroke:#000000;stroke-width:2.83459997;stroke-linecap:butt;stroke-linejoin:miter;stroke-miterlimit:4;stroke-opacity:1"
     id="path177" />
  <path
     d="M 71.536368,263.117 C 68.867668,261.58 67.631068,258.713 69.014868,256.315 C 69.523668,255.425 70.335168,255.552 70.335168,255.552 C 69.916268,256.251 71.231668,258.318 73.537568,259.658 C 75.841068,260.982 78.290268,261.089 78.685068,260.368 C 78.685068,260.368 79.199468,261.015 78.682868,261.908 C 77.306868,264.309 74.205568,264.661 71.536368,263.117 z "
     style="fill:none;stroke:#000000;stroke-width:2.83459997;stroke-linecap:butt;stroke-linejoin:round;stroke-miterlimit:4;stroke-opacity:1"
     id="path181" />
  <path
     d="M 70.758268,262.752 C 70.477768,263.216 70.385268,263.305 69.947768,263.686 C 69.503168,264.072 69.028568,264.358 68.536368,264.56"
     style="fill:none;stroke:#000000;stroke-width:2.83459997;stroke-linecap:round;stroke-linejoin:miter;stroke-miterlimit:4;stroke-opacity:1"
     id="path185" />
  <path
     d="M 56.451868,263.735 C 55.642568,263.114 54.614968,262.614 53.451868,262.321 C 50.496068,261.585 47.218768,262.756 46.829068,264.29 C 46.785168,264.487 46.201868,264.453 46.152068,264.663 C 46.101568,264.862 46.632568,265.104 46.581768,265.302 C 46.191168,266.839 48.539068,269.415 51.497768,270.154 C 52.656968,270.446 53.793668,270.488 54.799568,270.323"
     style="fill:none;stroke:#000000;stroke-width:2.83459997;stroke-linecap:butt;stroke-linejoin:miter;stroke-miterlimit:4;stroke-opacity:1"
     id="path189" />
  <path
     d="M 60.150368,268.148 C 60.902068,265.161 59.701168,262.28 57.015368,261.608 C 56.021468,261.355 55.547868,262.026 55.547868,262.026 C 56.342768,262.21 56.914068,264.594 56.272468,267.183 C 55.622768,269.76 53.996068,271.595 53.205068,271.376 C 53.205068,271.376 53.310268,272.195 54.313468,272.447 C 56.996068,273.125 59.404268,271.141 60.150368,268.148 z "
     style="fill:none;stroke:#000000;stroke-width:2.83459997;stroke-linecap:butt;stroke-linejoin:round;stroke-miterlimit:4;stroke-opacity:1"
     id="path193" />
  <path
     d="M 60.430668,267.336 C 60.956768,267.457 61.086668,267.452 61.664068,267.403 C 62.250968,267.353 62.786868,267.21 63.274168,266.995"
     style="fill:none;stroke:#000000;stroke-width:2.83459997;stroke-linecap:round;stroke-linejoin:miter;stroke-miterlimit:4;stroke-opacity:1"
     id="path197" />
  <path
     d="M 109.37897,305.008 C 108.98597,304.064 108.76497,302.943 108.77897,301.745 C 108.82597,298.698 110.79297,295.829 112.37797,295.846 C 112.57897,295.853 112.69597,295.28 112.91197,295.286 C 113.11597,295.288 113.21397,295.863 113.41797,295.866 C 115.00397,295.881 116.89497,298.811 116.85297,301.858 C 116.83697,303.054 116.58797,304.163 116.17097,305.094"
     style="fill:none;stroke:#000000;stroke-width:2.83459997;stroke-linecap:butt;stroke-linejoin:miter;stroke-miterlimit:4;stroke-opacity:1"
     id="path201" />
  <path
     d="M 112.70097,309.712 C 109.62097,309.673 107.14197,307.774 107.17897,305.007 C 107.18797,303.98 107.95797,303.695 107.95797,303.695 C 107.93397,304.511 110.09097,305.672 112.75797,305.716 C 115.41497,305.746 117.60397,304.644 117.59597,303.821 C 117.59597,303.821 118.36097,304.135 118.34597,305.167 C 118.31797,307.934 115.78397,309.755 112.70097,309.712 z "
     style="fill:none;stroke:#000000;stroke-width:2.83459997;stroke-linecap:butt;stroke-linejoin:round;stroke-miterlimit:4;stroke-opacity:1"
     id="path205" />
  <path
     d="M 111.84297,309.772 C 111.82497,310.314 111.78697,310.437 111.59097,310.982 C 111.39197,311.538 111.11797,312.019 110.78697,312.435"
     style="fill:none;stroke:#000000;stroke-width:2.83459997;stroke-linecap:round;stroke-linejoin:miter;stroke-miterlimit:4;stroke-opacity:1"
     id="path209" />
  <path
     d="M 100.15097,318.377 C 99.139868,318.231 97.999268,318.298 96.842268,318.611 C 93.903568,319.415 91.617668,322.04 92.028568,323.568 C 92.086168,323.762 91.560768,324.017 91.620368,324.225 C 91.673068,324.423 92.255368,324.374 92.307868,324.571 C 92.718968,326.103 96.026868,327.202 98.968968,326.399 C 100.12297,326.087 101.13497,325.567 101.93097,324.932"
     style="fill:none;stroke:#000000;stroke-width:2.83459997;stroke-linecap:butt;stroke-linejoin:miter;stroke-miterlimit:4;stroke-opacity:1"
     id="path213" />
  <path
     d="M 105.53497,320.417 C 104.72897,317.444 102.27197,315.519 99.601068,316.247 C 98.610568,316.513 98.525868,317.329 98.525868,317.329 C 99.309068,317.101 100.97297,318.9 101.67997,321.472 C 102.37497,324.038 101.85197,326.434 101.05497,326.63 C 101.05497,326.63 101.54797,327.293 102.54597,327.022 C 105.21697,326.301 106.34697,323.392 105.53497,320.417 z "
     style="fill:none;stroke:#000000;stroke-width:2.83459997;stroke-linecap:butt;stroke-linejoin:round;stroke-miterlimit:4;stroke-opacity:1"
     id="path217" />
  <path
     d="M 105.38097,319.571 C 105.89997,319.42 106.01097,319.353 106.48997,319.027 C 106.97697,318.696 107.37497,318.31 107.69597,317.884"
     style="fill:none;stroke:#000000;stroke-width:2.83459997;stroke-linecap:round;stroke-linejoin:miter;stroke-miterlimit:4;stroke-opacity:1"
     id="path221" />
  <path
     d="M 297.01297,257.345 C 296.89597,256.33 296.54097,255.244 295.94297,254.204 C 294.41597,251.568 291.29597,250.025 289.92097,250.814 C 289.75097,250.918 289.36897,250.475 289.18297,250.586 C 289.00697,250.688 289.20097,251.237 289.02497,251.339 C 287.64797,252.127 287.42697,255.606 288.95297,258.246 C 289.54997,259.281 290.30997,260.128 291.12797,260.736"
     style="fill:none;stroke:#000000;stroke-width:2.83459997;stroke-linecap:butt;stroke-linejoin:miter;stroke-miterlimit:4;stroke-opacity:1"
     id="path225" />
  <path
     d="M 296.41197,263.071 C 299.07997,261.534 300.31597,258.667 298.93297,256.27 C 298.42297,255.379 297.61297,255.506 297.61297,255.506 C 298.03097,256.205 296.71597,258.272 294.40997,259.612 C 292.10697,260.937 289.65797,261.043 289.26297,260.322 C 289.26297,260.322 288.74797,260.969 289.26497,261.862 C 290.63997,264.263 293.74197,264.615 296.41197,263.071 z "
     style="fill:none;stroke:#000000;stroke-width:2.83459997;stroke-linecap:butt;stroke-linejoin:round;stroke-miterlimit:4;stroke-opacity:1"
     id="path229" />
  <path
     d="M 297.18897,262.706 C 297.46997,263.17 297.56197,263.259 297.99997,263.64 C 298.44497,264.026 298.91897,264.312 299.41197,264.514"
     style="fill:none;stroke:#000000;stroke-width:2.83459997;stroke-linecap:round;stroke-linejoin:miter;stroke-miterlimit:4;stroke-opacity:1"
     id="path233" />
  <path
     d="M 258.54097,305.008 C 258.93497,304.064 259.15597,302.943 259.14197,301.745 C 259.09497,298.698 257.12597,295.829 255.54197,295.846 C 255.34097,295.853 255.22397,295.28 255.00897,295.286 C 254.80397,295.288 254.70697,295.863 254.50097,295.866 C 252.91597,295.881 251.02497,298.811 251.06797,301.858 C 251.08297,303.054 251.33197,304.163 251.74997,305.094"
     style="fill:none;stroke:#000000;stroke-width:2.83459997;stroke-linecap:butt;stroke-linejoin:miter;stroke-miterlimit:4;stroke-opacity:1"
     id="path237" />
  <path
     d="M 255.21997,309.712 C 258.29997,309.673 260.77897,307.774 260.74197,305.007 C 260.73197,303.98 259.96197,303.695 259.96197,303.695 C 259.98597,304.511 257.82997,305.672 255.16197,305.716 C 252.50497,305.746 250.31597,304.644 250.32397,303.821 C 250.32397,303.821 249.55997,304.135 249.57397,305.167 C 249.60297,307.934 252.13597,309.755 255.21997,309.712 z "
     style="fill:none;stroke:#000000;stroke-width:2.83459997;stroke-linecap:butt;stroke-linejoin:round;stroke-miterlimit:4;stroke-opacity:1"
     id="path241" />
  <path
     d="M 256.07797,309.772 C 256.09497,310.314 256.13397,310.437 256.32997,310.982 C 256.52897,311.538 256.80197,312.019 257.13397,312.435"
     style="fill:none;stroke:#000000;stroke-width:2.83459997;stroke-linecap:round;stroke-linejoin:miter;stroke-miterlimit:4;stroke-opacity:1"
     id="path245" />
  <path
     d="M 267.86197,318.435 C 268.87197,318.288 270.01197,318.354 271.16997,318.669 C 274.10797,319.472 276.39497,322.097 275.98297,323.626 C 275.92597,323.819 276.45197,324.073 276.39097,324.282 C 276.33797,324.479 275.75597,324.431 275.70397,324.628 C 275.29297,326.159 271.98497,327.259 269.04297,326.456 C 267.88897,326.144 266.87697,325.624 266.08097,324.989"
     style="fill:none;stroke:#000000;stroke-width:2.83459997;stroke-linecap:butt;stroke-linejoin:miter;stroke-miterlimit:4;stroke-opacity:1"
     id="path249" />
  <path
     d="M 262.47697,320.474 C 263.28397,317.501 265.74097,315.575 268.41097,316.304 C 269.40097,316.569 269.48697,317.386 269.48697,317.386 C 268.70397,317.157 267.03997,318.958 266.33297,321.528 C 265.63697,324.095 266.16097,326.491 266.95797,326.687 C 266.95797,326.687 266.46297,327.351 265.46497,327.079 C 262.79497,326.358 261.66497,323.448 262.47697,320.474 z "
     style="fill:none;stroke:#000000;stroke-width:2.83459997;stroke-linecap:butt;stroke-linejoin:round;stroke-miterlimit:4;stroke-opacity:1"
     id="path253" />
  <path
     d="M 262.63097,319.628 C 262.11197,319.478 261.99997,319.409 261.52197,319.085 C 261.03597,318.753 260.63697,318.366 260.31697,317.94"
     style="fill:none;stroke:#000000;stroke-width:2.83459997;stroke-linecap:round;stroke-linejoin:miter;stroke-miterlimit:4;stroke-opacity:1"
     id="path257" />
  <path
     d="M 311.55997,263.685 C 312.36997,263.063 313.39697,262.563 314.55997,262.271 C 317.51597,261.534 320.79297,262.706 321.18297,264.239 C 321.22697,264.437 321.80997,264.403 321.85997,264.612 C 321.91097,264.812 321.37897,265.054 321.42997,265.251 C 321.82097,266.788 319.47297,269.364 316.51397,270.104 C 315.35497,270.396 314.21797,270.438 313.21197,270.272"
     style="fill:none;stroke:#000000;stroke-width:2.83459997;stroke-linecap:butt;stroke-linejoin:miter;stroke-miterlimit:4;stroke-opacity:1"
     id="path261" />
  <path
     d="M 307.86197,268.099 C 307.10997,265.11 308.31097,262.229 310.99697,261.558 C 311.99097,261.306 312.46397,261.976 312.46397,261.976 C 311.66897,262.159 311.09797,264.544 311.73997,267.132 C 312.38897,269.71 314.01597,271.544 314.80697,271.325 C 314.80697,271.325 314.70197,272.146 313.69897,272.397 C 311.01597,273.075 308.60797,271.091 307.86197,268.099 z "
     style="fill:none;stroke:#000000;stroke-width:2.83459997;stroke-linecap:butt;stroke-linejoin:round;stroke-miterlimit:4;stroke-opacity:1"
     id="path265" />
  <path
     d="M 307.58197,267.286 C 307.05497,267.407 306.92497,267.401 306.34797,267.353 C 305.76097,267.302 305.22497,267.159 304.73797,266.944"
     style="fill:none;stroke:#000000;stroke-width:2.83459997;stroke-linecap:round;stroke-linejoin:miter;stroke-miterlimit:4;stroke-opacity:1"
     id="path269" />
  <path
     d="M 285.03497,138.198 C 284.10697,137.771 282.99597,137.51 281.79597,137.481 C 278.74997,137.417 275.81197,139.28 275.77097,140.863 C 275.77097,141.065 275.19497,141.161 275.19397,141.377 C 275.18897,141.581 275.75897,141.7 275.75297,141.904 C 275.71197,143.49 278.56997,145.484 281.61897,145.553 C 282.81397,145.581 283.93197,145.372 284.87697,144.988"
     style="fill:none;stroke:#000000;stroke-width:2.83459997;stroke-linecap:butt;stroke-linejoin:miter;stroke-miterlimit:4;stroke-opacity:1"
     id="path273" />
  <path
     d="M 289.61597,141.688 C 289.68997,138.607 287.88197,136.062 285.11397,135.999 C 284.08797,135.972 283.77597,136.731 283.77597,136.731 C 284.59097,136.735 285.67397,138.935 285.62097,141.601 C 285.55597,144.257 284.37397,146.405 283.55397,146.367 C 283.55397,146.367 283.83697,147.144 284.87097,147.167 C 287.63597,147.236 289.54797,144.77 289.61597,141.688 z "
     style="fill:none;stroke:#000000;stroke-width:2.83459997;stroke-linecap:butt;stroke-linejoin:round;stroke-miterlimit:4;stroke-opacity:1"
     id="path277" />
  <path
     d="M 289.70797,140.832 C 290.24997,140.834 290.37497,140.802 290.92697,140.626 C 291.48797,140.446 291.97997,140.189 292.40797,139.873"
     style="fill:none;stroke:#000000;stroke-width:2.83459997;stroke-linecap:round;stroke-linejoin:miter;stroke-miterlimit:4;stroke-opacity:1"
     id="path281" />
  <path
     d="M 306.74997,196.012 C 306.15597,195.183 305.31997,194.403 304.29397,193.782 C 301.68097,192.215 298.20497,192.373 297.38397,193.729 C 297.28497,193.903 296.73597,193.7 296.62597,193.888 C 296.52097,194.062 296.95797,194.448 296.85097,194.623 C 296.02897,195.98 297.51897,199.13 300.13197,200.702 C 301.15597,201.319 302.22997,201.692 303.24197,201.829"
     style="fill:none;stroke:#000000;stroke-width:2.83459997;stroke-linecap:butt;stroke-linejoin:miter;stroke-miterlimit:4;stroke-opacity:1"
     id="path285" />
  <path
     d="M 308.99397,201.315 C 310.58497,198.679 310.28097,195.572 307.90997,194.143 C 307.03297,193.609 306.38397,194.114 306.38397,194.114 C 307.08897,194.522 306.93897,196.969 305.56797,199.257 C 304.19297,201.53 302.10097,202.809 301.40797,202.369 C 301.40797,202.369 301.26897,203.184 302.15397,203.716 C 304.52097,205.15 307.40597,203.958 308.99397,201.315 z "
     style="fill:none;stroke:#000000;stroke-width:2.83459997;stroke-linecap:butt;stroke-linejoin:round;stroke-miterlimit:4;stroke-opacity:1"
     id="path289" />
  <path
     d="M 309.49797,200.619 C 309.96797,200.89 310.09097,200.923 310.65997,201.044 C 311.23597,201.167 311.78897,201.188 312.31797,201.126"
     style="fill:none;stroke:#000000;stroke-width:2.83459997;stroke-linecap:round;stroke-linejoin:miter;stroke-miterlimit:4;stroke-opacity:1"
     id="path293" />
  <path
     d="M 298.46997,128.635 C 298.36197,127.619 298.47097,126.483 298.82797,125.337 C 299.74197,122.431 302.44897,120.244 303.95997,120.712 C 304.15197,120.777 304.42697,120.261 304.63197,120.33 C 304.82797,120.39 304.75697,120.968 304.95297,121.029 C 306.46797,121.498 307.44297,124.843 306.53097,127.753 C 306.17397,128.895 305.61897,129.887 304.95297,130.66"
     style="fill:none;stroke:#000000;stroke-width:2.83459997;stroke-linecap:butt;stroke-linejoin:miter;stroke-miterlimit:4;stroke-opacity:1"
     id="path297" />
  <path
     d="M 300.30797,134.091 C 297.36697,133.175 295.53497,130.648 296.36097,128.005 C 296.66397,127.025 297.48397,126.972 297.48397,126.972 C 297.22597,127.746 298.96197,129.476 301.50497,130.279 C 304.04197,131.068 306.45697,130.636 306.68297,129.847 C 306.68297,129.847 307.32797,130.365 307.01897,131.351 C 306.19897,133.994 303.24997,135.015 300.30797,134.091 z "
     style="fill:none;stroke:#000000;stroke-width:2.83459997;stroke-linecap:butt;stroke-linejoin:round;stroke-miterlimit:4;stroke-opacity:1"
     id="path301" />
  <path
     d="M 299.46897,133.905 C 299.29697,134.419 299.22597,134.527 298.88197,134.994 C 298.53297,135.468 298.13197,135.851 297.69497,136.156"
     style="fill:none;stroke:#000000;stroke-width:2.83459997;stroke-linecap:round;stroke-linejoin:miter;stroke-miterlimit:4;stroke-opacity:1"
     id="path305" />
  <path
     d="M 322.42597,194.719 C 322.83097,193.782 323.48397,192.845 324.35697,192.023 C 326.58097,189.94 330.01297,189.365 331.09997,190.516 C 331.23497,190.667 331.72797,190.353 331.87397,190.513 C 332.01397,190.662 331.66797,191.13 331.80897,191.279 C 332.89897,192.432 332.10397,195.825 329.87897,197.911 C 329.00897,198.731 328.03697,199.321 327.07797,199.667"
     style="fill:none;stroke:#000000;stroke-width:2.83459997;stroke-linecap:butt;stroke-linejoin:miter;stroke-miterlimit:4;stroke-opacity:1"
     id="path309" />
  <path
     d="M 321.34597,200.374 C 319.23397,198.132 318.87997,195.031 320.89797,193.135 C 321.64297,192.43 322.38297,192.787 322.38297,192.787 C 321.77897,193.333 322.44097,195.694 324.26197,197.642 C 326.08397,199.577 328.39897,200.386 328.98397,199.81 C 328.98397,199.81 329.29097,200.577 328.53797,201.286 C 326.52497,203.185 323.45497,202.624 321.34597,200.374 z "
     style="fill:none;stroke:#000000;stroke-width:2.83459997;stroke-linecap:butt;stroke-linejoin:round;stroke-miterlimit:4;stroke-opacity:1"
     id="path313" />
  <path
     d="M 320.70597,199.802 C 320.30397,200.163 320.18897,200.224 319.66097,200.46 C 319.12397,200.702 318.58597,200.839 318.05597,200.89"
     style="fill:none;stroke:#000000;stroke-width:2.83459997;stroke-linecap:round;stroke-linejoin:miter;stroke-miterlimit:4;stroke-opacity:1"
     id="path317" />
  <path
     d="M 156.44797,335.752 C 169.98397,337.908 168.15597,336.762 168.15997,336.764 C 168.16497,336.766 170.12397,336.225 156.78397,334.107 C 143.40797,331.762 125.57797,324.128 125.57797,324.242 C 125.43897,324.398 142.80097,333.344 156.44797,335.752 z "
     style="fill:#000000;fill-opacity:1;stroke:#000000;stroke-width:1.39999998;stroke-linecap:butt;stroke-linejoin:miter;stroke-miterlimit:4;stroke-opacity:1"
     id="path325" />
  <path
     d="M 93.187468,302.941 C 103.28497,312.193 102.73997,309.797 102.60297,309.963 C 102.74597,309.803 104.29197,310.838 94.343768,301.717 C 84.214568,292.725 72.986068,277.014 72.881568,277.014 C 72.583968,277.127 82.867168,293.75 93.187468,302.941 z "
     style="fill:#000000;fill-opacity:1;stroke:#000000;stroke-width:1.39999998;stroke-linecap:butt;stroke-linejoin:miter;stroke-miterlimit:4;stroke-opacity:1"
     id="path333" />
  <path
     d="M 58.051768,246.895 C 62.737068,259.775 62.917968,257.59 62.896468,257.604 C 62.918668,257.6 64.271468,259.074 59.653068,246.383 C 55.182368,233.566 53.211668,214.343 52.980468,214.343 C 52.729468,214.304 53.505868,233.814 58.051768,246.895 z "
     style="fill:#000000;fill-opacity:1;stroke:#000000;stroke-width:1.39999998;stroke-linecap:butt;stroke-linejoin:miter;stroke-miterlimit:4;stroke-opacity:1"
     id="path341" />
  <path
     d="M 54.781968,180.413 C 52.250968,193.885 53.963868,192.145 53.769268,192.121 C 53.959968,192.154 53.930668,194.035 56.428468,180.756 C 58.746068,167.392 66.600568,149.79 66.392568,149.582 C 66.140368,149.383 57.166968,166.777 54.781968,180.413 z "
     style="fill:#000000;fill-opacity:1;stroke:#000000;stroke-width:1.39999998;stroke-linecap:butt;stroke-linejoin:miter;stroke-miterlimit:4;stroke-opacity:1"
     id="path349" />
  <path
     d="M 84.544668,121.219 C 75.890368,131.848 78.088868,131.043 77.986068,130.974 C 78.081068,131.051 77.286868,132.793 85.818368,122.317 C 94.404268,111.815 109.46297,99.642 109.61497,99.838 C 109.77197,99.994 93.318368,110.516 84.544668,121.219 z "
     style="fill:#000000;fill-opacity:1;stroke:#000000;stroke-width:1.39999998;stroke-linecap:butt;stroke-linejoin:miter;stroke-miterlimit:4;stroke-opacity:1"
     id="path357" />
  <path
     d="M 160.66697,335.643 C 160.63797,335.133 161.29597,328.473 158.37997,326.6 C 155.81497,324.969 155.48097,329.541 153.88697,329.205 C 152.04397,328.791 151.99497,327.182 151.60897,324.568 C 151.35397,323.006 151.12597,319.451 147.84097,318.518 C 143.39597,317.262 144.95197,324.086 142.19897,324.299 C 139.73797,324.506 140.01397,320.59 139.99797,317.916 C 139.97897,313.385 138.05297,310.621 133.62097,311.232 C 128.58597,311.656 133.06797,319.656 130.78697,320.596 C 128.64397,321.482 127.19297,320.084 125.91597,317.74 C 123.16597,312.791 117.68997,312.906 114.52097,317.664 C 111.27097,322.555 114.27297,328.184 120.59997,327.744 C 123.45997,327.564 125.33597,328.158 126.16697,330.367 C 127.18497,333.113 116.98897,333.412 120.39797,338.289 C 123.66297,342.545 128.22097,342.24 131.53297,339.201 C 133.61997,337.291 135.92697,334.646 137.97597,336.184 C 140.39697,338.031 134.18497,342.406 139.56297,344.244 C 143.63497,345.631 145.89897,342.857 146.96497,341.711 C 148.72597,339.848 149.60797,338.268 151.59897,338.715 C 153.30897,339.08 151.54697,343.352 154.98697,342.99 C 158.90297,342.578 160.46397,336.104 160.66697,335.643 z "
     style="fill:none;stroke:#000000;stroke-width:3.40159988;stroke-linecap:butt;stroke-linejoin:miter;stroke-miterlimit:4;stroke-opacity:1"
     id="path361" />
  <path
     d="M 100.13097,307.545 C 100.34797,307.1 104.09397,301.742 102.40397,298.857 C 100.96797,296.266 98.558568,299.936 97.385468,298.854 C 96.056368,297.566 96.857168,296.092 97.717768,293.732 C 98.247768,292.279 99.643568,289.236 97.249968,286.895 C 94.221668,283.533 92.155268,290.238 89.789768,289.021 C 87.698968,287.92 89.618868,284.861 90.885468,282.564 C 92.839568,278.826 92.780968,275.334 88.702868,273.736 C 84.034168,271.799 84.312468,280.611 81.826868,280.383 C 79.604468,280.092 78.883768,278.307 78.839568,275.736 C 79.118868,270.033 74.247068,267.588 69.190168,270.191 C 64.154268,272.781 64.172868,278.963 69.519268,281.76 C 72.122068,282.924 73.591768,284.225 73.213868,286.539 C 72.859368,289.312 63.739968,284.879 64.486068,290.572 C 65.242168,295.773 69.007568,297.885 73.481168,296.719 C 76.174568,296.084 79.593768,294.768 80.497768,297.16 C 81.591768,299.979 74.331068,300.627 77.868868,304.924 C 80.707768,308.018 84.081768,306.627 85.540768,306.156 C 87.997768,305.346 89.438468,304.49 90.872768,305.881 C 92.131568,307.039 88.512668,309.922 91.647468,311.227 C 95.283168,312.639 99.734368,307.846 100.13097,307.545 z "
     style="fill:none;stroke:#000000;stroke-width:3.40159988;stroke-linecap:butt;stroke-linejoin:miter;stroke-miterlimit:4;stroke-opacity:1"
     id="path365" />
  <path
     d="M 61.633768,254.268 C 62.044668,253.982 67.946268,251.125 68.028068,247.73 C 68.087868,244.75 64.094468,246.811 63.565168,245.307 C 62.976568,243.551 64.294668,242.689 66.259768,241.037 C 67.436268,240.023 70.291968,238.016 69.400368,234.791 C 68.189468,230.434 63.275368,235.227 61.695068,233.035 C 60.244868,231.088 63.646468,229.316 65.883768,227.934 C 69.636468,225.6 71.070068,222.562 68.177468,219.182 C 65.220668,215.191 60.918668,223.031 58.967768,221.603 C 57.023168,220.278 57.529268,218.342 58.834968,216.072 C 61.691168,211.232 58.548568,206.717 53.000968,206.518 C 47.206768,206.316 44.285868,211.703 47.758768,216.762 C 49.372768,219.055 49.756568,220.929 48.443368,222.746 C 46.671868,224.998 41.119868,216.654 38.817368,221.99 C 37.046868,226.881 39.525368,230.539 43.776368,231.75 C 46.428468,232.518 49.823968,233.09 49.608368,235.582 C 49.296868,238.551 42.475568,235.598 43.676768,241.033 C 44.593768,245.143 48.064468,245.619 49.566168,245.924 C 52.042968,246.434 53.817368,246.361 54.451168,248.258 C 55.017568,249.873 50.550768,250.586 52.601568,253.279 C 54.941168,256.344 61.146468,254.334 61.633768,254.268 z "
     style="fill:none;stroke:#000000;stroke-width:3.40159988;stroke-linecap:butt;stroke-linejoin:miter;stroke-miterlimit:4;stroke-opacity:1"
     id="path369" />
  <path
     d="M 54.261468,189 C 54.815168,188.959 61.129868,189.307 62.931368,186.392 C 64.474368,183.826 59.973368,183.679 60.266568,182.109 C 60.614968,180.291 62.244868,180.192 64.709968,179.693 C 66.224368,179.382 69.686268,179.015 70.445068,175.756 C 71.492168,171.356 64.822268,173.133 64.594468,170.476 C 64.483368,168.132 68.114968,168.179 70.755868,168.065 C 75.035168,167.808 77.803468,165.872 77.102268,161.586 C 76.310268,156.593 68.950168,161.429 67.845668,159.19 C 66.962868,157.158 68.001968,155.561 70.314468,154.251 C 75.230468,151.458 74.739968,146.014 69.981168,143.112 C 65.046868,140.111 59.815168,143.362 60.313468,149.442 C 60.536868,152.201 60.301768,154.185 58.099368,155.056 C 55.550768,156.204 54.564468,146.102 50.102268,149.714 C 45.993868,153.055 46.335668,157.44 49.591768,160.623 C 51.520268,162.581 54.406968,164.805 52.797868,166.812 C 50.993868,169.227 46.520268,163.338 44.940168,168.674 C 43.770268,172.719 46.581068,174.828 47.750968,175.826 C 49.722668,177.493 51.247768,178.283 50.869868,180.245 C 50.555668,181.928 46.316168,180.375 46.757568,183.718 C 47.232168,187.52 53.859368,188.826 54.261468,189 z "
     style="fill:none;stroke:#000000;stroke-width:3.40159988;stroke-linecap:butt;stroke-linejoin:miter;stroke-miterlimit:4;stroke-opacity:1"
     id="path373" />
  <path
     d="M 79.739268,128.253 C 80.193368,128.45 85.636468,131.936 88.610368,130.254 C 91.189468,128.751 87.341768,126.422 88.354468,125.188 C 89.506568,123.736 91.052468,124.515 93.460668,125.297 C 94.928468,125.761 98.114968,127.122 100.33997,124.613 C 103.47597,121.349 96.765368,119.625 97.869868,117.195 C 98.894268,115.07 102.02997,116.87 104.38197,118.048 C 108.20697,119.871 111.72497,119.703 113.08597,115.469 C 114.82597,110.719 106.04997,111.37 106.18497,108.888 C 106.34197,106.598 108.11297,105.826 110.77797,105.815 C 116.34697,105.641 118.69197,100.839 115.89897,95.909 C 113.09697,90.964 106.82197,91.064 104.38597,96.745 C 103.22897,99.256 101.97497,100.756 99.689468,100.526 C 96.898168,100.275 100.93997,90.965 95.291968,91.946 C 90.200168,93.003 88.212868,96.819 89.539768,101.224 C 90.279268,103.885 91.726568,107.246 89.364968,108.237 C 86.611068,109.46 85.599368,102.158 81.551768,105.968 C 78.593768,108.953 80.025368,112.178 80.563468,113.626 C 81.454068,116.031 82.321268,117.4 81.072968,118.961 C 79.988268,120.284 77.046868,116.851 75.819068,120 C 74.399168,123.568 79.423568,127.867 79.739268,128.253 z "
     style="fill:none;stroke:#000000;stroke-width:3.40159988;stroke-linecap:butt;stroke-linejoin:miter;stroke-miterlimit:4;stroke-opacity:1"
     id="path377" />
  <path
     d="M 207.28697,335.643 C 207.31597,335.133 206.65797,328.473 209.57397,326.6 C 212.13797,324.969 212.47197,329.541 214.06697,329.205 C 215.90997,328.791 215.95797,327.182 216.34397,324.568 C 216.59897,323.006 216.82797,319.451 220.11297,318.518 C 224.55697,317.262 223.00097,324.086 225.75397,324.299 C 228.21497,324.506 227.93997,320.59 227.95597,317.916 C 227.97497,313.385 229.90097,310.621 234.33297,311.232 C 239.36797,311.656 234.88497,319.656 237.16697,320.596 C 239.30997,321.482 240.75997,320.084 242.03797,317.74 C 244.78797,312.791 250.26297,312.906 253.43197,317.664 C 256.68197,322.555 253.67997,328.184 247.35397,327.744 C 244.49397,327.564 242.61797,328.158 241.78697,330.367 C 240.76897,333.113 250.96397,333.412 247.55497,338.289 C 244.29097,342.545 239.73297,342.24 236.41997,339.201 C 234.33297,337.291 232.02697,334.646 229.97797,336.184 C 227.55597,338.031 233.76897,342.406 228.38997,344.244 C 224.31897,345.631 222.05397,342.857 220.98897,341.711 C 219.22797,339.848 218.34497,338.268 216.35497,338.715 C 214.64497,339.08 216.40697,343.352 212.96597,342.99 C 209.04997,342.578 207.48997,336.104 207.28697,335.643 z "
     style="fill:none;stroke:#000000;stroke-width:3.40159988;stroke-linecap:butt;stroke-linejoin:miter;stroke-miterlimit:4;stroke-opacity:1"
     id="path381" />
  <path
     d="M 267.82297,307.545 C 267.60597,307.1 263.85997,301.742 265.54897,298.857 C 266.98597,296.266 269.39497,299.936 270.56797,298.854 C 271.89697,297.566 271.09597,296.092 270.23597,293.732 C 269.70597,292.279 268.30997,289.236 270.70397,286.895 C 273.73197,283.533 275.79797,290.238 278.16397,289.021 C 280.25397,287.92 278.33397,284.861 277.06797,282.564 C 275.11397,278.826 275.17197,275.334 279.24997,273.736 C 283.91897,271.799 283.64097,280.611 286.12597,280.383 C 288.34897,280.092 289.06997,278.307 289.11397,275.736 C 288.83397,270.033 293.70697,267.588 298.76297,270.191 C 303.79897,272.781 303.78097,278.963 298.43397,281.76 C 295.83197,282.924 294.36197,284.225 294.73997,286.539 C 295.09397,289.312 304.21297,284.879 303.46697,290.572 C 302.71097,295.773 298.94597,297.885 294.47197,296.719 C 291.77897,296.084 288.35997,294.768 287.45597,297.16 C 286.36197,299.979 293.62297,300.627 290.08397,304.924 C 287.24597,308.018 283.87197,306.627 282.41297,306.156 C 279.95597,305.346 278.51497,304.49 277.08097,305.881 C 275.82197,307.039 279.44097,309.922 276.30597,311.227 C 272.66997,312.639 268.21897,307.846 267.82297,307.545 z "
     style="fill:none;stroke:#000000;stroke-width:3.40159988;stroke-linecap:butt;stroke-linejoin:miter;stroke-miterlimit:4;stroke-opacity:1"
     id="path385" />
  <path
     d="M 306.31997,254.268 C 305.90897,253.982 300.00697,251.125 299.92497,247.73 C 299.86597,244.75 303.85897,246.811 304.38797,245.307 C 304.97697,243.551 303.65897,242.689 301.69397,241.037 C 300.51697,240.023 297.66197,238.016 298.55297,234.791 C 299.76397,230.434 304.67797,235.227 306.25797,233.035 C 307.70797,231.088 304.30697,229.316 302.06997,227.934 C 298.31697,225.6 296.88297,222.562 299.77597,219.182 C 302.73297,215.191 307.03497,223.031 308.98597,221.603 C 310.92997,220.278 310.42397,218.342 309.11897,216.072 C 306.26197,211.232 309.40497,206.717 314.95297,206.518 C 320.74697,206.316 323.66697,211.703 320.19497,216.762 C 318.58097,219.055 318.19697,220.929 319.50997,222.746 C 321.28197,224.998 326.83297,216.654 329.13597,221.99 C 330.90697,226.881 328.42797,230.539 324.17697,231.75 C 321.52497,232.518 318.12897,233.09 318.34497,235.582 C 318.65697,238.551 325.47797,235.598 324.27697,241.033 C 323.35997,245.143 319.88897,245.619 318.38697,245.924 C 315.91097,246.434 314.13597,246.361 313.50197,248.258 C 312.93597,249.873 317.40297,250.586 315.35197,253.279 C 313.01197,256.344 306.80697,254.334 306.31997,254.268 z "
     style="fill:none;stroke:#000000;stroke-width:3.40159988;stroke-linecap:butt;stroke-linejoin:miter;stroke-miterlimit:4;stroke-opacity:1"
     id="path389" />
  <path
     d="M 313.69197,189 C 313.13797,188.959 306.82397,189.307 305.02197,186.392 C 303.47897,183.826 307.97997,183.679 307.68697,182.109 C 307.33797,180.291 305.70797,180.192 303.24397,179.693 C 301.72897,179.382 298.26697,179.015 297.50797,175.756 C 296.46097,171.356 303.13097,173.133 303.35897,170.476 C 303.46997,168.132 299.83797,168.179 297.19797,168.065 C 292.91797,167.808 290.14997,165.872 290.85097,161.586 C 291.64297,156.593 299.00297,161.429 300.10797,159.19 C 300.99097,157.158 299.95197,155.561 297.63897,154.251 C 292.72297,151.458 293.21297,146.014 297.97197,143.112 C 302.90697,140.111 308.13797,143.362 307.63997,149.442 C 307.41697,152.201 307.65197,154.185 309.85397,155.056 C 312.40297,156.204 313.38897,146.102 317.85097,149.714 C 321.95897,153.055 321.61797,157.44 318.36197,160.623 C 316.43297,162.581 313.54597,164.805 315.15597,166.812 C 316.95897,169.227 321.43297,163.338 323.01297,168.674 C 324.18297,172.719 321.37297,174.828 320.20297,175.826 C 318.23097,177.493 316.70597,178.283 317.08297,180.245 C 317.39797,181.928 321.63697,180.375 321.19597,183.718 C 320.72097,187.52 314.09397,188.826 313.69197,189 z "
     style="fill:none;stroke:#000000;stroke-width:3.40159988;stroke-linecap:butt;stroke-linejoin:miter;stroke-miterlimit:4;stroke-opacity:1"
     id="path393" />
  <path
     d="M 288.21397,128.253 C 287.75997,128.45 282.31697,131.936 279.34297,130.254 C 276.76397,128.751 280.61197,126.422 279.59897,125.188 C 278.44697,123.736 276.90097,124.515 274.49297,125.297 C 273.02497,125.761 269.83797,127.122 267.61397,124.613 C 264.47797,121.349 271.18797,119.625 270.08297,117.195 C 269.05897,115.07 265.92297,116.87 263.57197,118.048 C 259.74697,119.871 256.22897,119.703 254.86797,115.469 C 253.12697,110.719 261.90397,111.37 261.76897,108.888 C 261.61197,106.598 259.83997,105.826 257.17497,105.815 C 251.60697,105.641 249.26097,100.839 252.05397,95.909 C 254.85697,90.964 261.13097,91.064 263.56797,96.745 C 264.72497,99.256 265.97897,100.756 268.26397,100.526 C 271.05497,100.275 267.01297,90.965 272.66197,91.946 C 277.75297,93.003 279.74097,96.819 278.41397,101.224 C 277.67397,103.885 276.22697,107.246 278.58797,108.237 C 281.34197,109.46 282.35397,102.158 286.40197,105.968 C 289.35997,108.953 287.92797,112.178 287.38997,113.626 C 286.49997,116.031 285.63197,117.4 286.87997,118.961 C 287.96497,120.284 290.90697,116.851 292.13397,120 C 293.55397,123.568 288.52997,127.867 288.21397,128.253 z "
     style="fill:none;stroke:#000000;stroke-width:3.40159988;stroke-linecap:butt;stroke-linejoin:miter;stroke-miterlimit:4;stroke-opacity:1"
     id="path397" />
  <path
     d="M 211.50497,335.752 C 197.96897,337.908 199.79697,336.762 199.79297,336.764 C 199.78897,336.766 197.82997,336.225 211.16897,334.107 C 224.54497,331.762 242.37497,324.128 242.37497,324.242 C 242.51397,324.398 225.15297,333.344 211.50497,335.752 z "
     style="fill:#000000;fill-opacity:1;stroke:#000000;stroke-width:1.39999998;stroke-linecap:butt;stroke-linejoin:miter;stroke-miterlimit:4;stroke-opacity:1"
     id="path405" />
  <path
     d="M 274.76597,302.941 C 264.66797,312.193 265.21297,309.797 265.35097,309.963 C 265.20797,309.803 263.66197,310.838 273.60997,301.717 C 283.73897,292.725 294.96697,277.014 295.07197,277.014 C 295.36997,277.127 285.08597,293.75 274.76597,302.941 z "
     style="fill:#000000;fill-opacity:1;stroke:#000000;stroke-width:1.39999998;stroke-linecap:butt;stroke-linejoin:miter;stroke-miterlimit:4;stroke-opacity:1"
     id="path413" />
  <path
     d="M 309.90197,246.895 C 305.21597,259.775 305.03597,257.59 305.05697,257.604 C 305.03497,257.6 303.68197,259.074 308.29997,246.383 C 312.77097,233.566 314.74197,214.343 314.97297,214.343 C 315.22397,214.304 314.44797,233.814 309.90197,246.895 z "
     style="fill:#000000;fill-opacity:1;stroke:#000000;stroke-width:1.39999998;stroke-linecap:butt;stroke-linejoin:miter;stroke-miterlimit:4;stroke-opacity:1"
     id="path421" />
  <path
     d="M 313.17097,180.413 C 315.70297,193.885 313.98997,192.145 314.18397,192.121 C 313.99397,192.154 314.02297,194.035 311.52497,180.756 C 309.20797,167.392 301.35297,149.79 301.56097,149.582 C 301.81297,149.383 310.78697,166.777 313.17097,180.413 z "
     style="fill:#000000;fill-opacity:1;stroke:#000000;stroke-width:1.39999998;stroke-linecap:butt;stroke-linejoin:miter;stroke-miterlimit:4;stroke-opacity:1"
     id="path429" />
  <path
     d="M 283.40897,121.219 C 292.06297,131.848 289.86497,131.043 289.96697,130.974 C 289.87297,131.051 290.66697,132.793 282.13497,122.317 C 273.54897,111.815 258.49097,99.642 258.33797,99.838 C 258.18097,99.994 274.63497,110.516 283.40897,121.219 z "
     style="fill:#000000;fill-opacity:1;stroke:#000000;stroke-width:1.39999998;stroke-linecap:butt;stroke-linejoin:miter;stroke-miterlimit:4;stroke-opacity:1"
     id="path437" />
</svg>
